<svg class="main-svg" xmlns="http://www.w3.org/2000/svg" xmlns:xlink="http://www.w3.org/1999/xlink" width="700" height="500" viewBox="0 0 700 500"><rect x="0" y="0" width="700" height="500" style="fill: rgb(255, 255, 255); fill-opacity: 1;"/><defs id="defs-b1c802"><g class="clips"><clipPath id="clipb1c802xyplot" class="plotclip"><rect width="435" height="320"/></clipPath><clipPath class="axesclip" id="clipb1c802x"><rect x="80" y="0" width="435" height="500"/></clipPath><clipPath class="axesclip" id="clipb1c802y"><rect x="0" y="100" width="700" height="320"/></clipPath><clipPath class="axesclip" id="clipb1c802xy"><rect x="80" y="100" width="435" height="320"/></clipPath></g><g class="gradients"/></defs><g class="bglayer"/><g class="layer-below"><g class="imagelayer"/><g class="shapelayer"/></g><g class="cartesianlayer"><g class="subplot xy"><g class="layer-subplot"><g class="shapelayer"/><g class="imagelayer"/></g><g class="gridlayer"><g class="x"><path class="xgrid crisp" transform="translate(95.53999999999999,0)" d="M0,100v320" style="stroke: rgb(204, 204, 204); stroke-opacity: 1; stroke-width: 1px;"/><path class="xgrid crisp" transform="translate(204.29000000000002,0)" d="M0,100v320" style="stroke: rgb(204, 204, 204); stroke-opacity: 1; stroke-width: 1px;"/><path class="xgrid crisp" transform="translate(313.03999999999996,0)" d="M0,100v320" style="stroke: rgb(204, 204, 204); stroke-opacity: 1; stroke-width: 1px;"/><path class="xgrid crisp" transform="translate(421.79,0)" d="M0,100v320" style="stroke: rgb(204, 204, 204); stroke-opacity: 1; stroke-width: 1px;"/></g><g class="y"><path class="ygrid crisp" transform="translate(0,360.03)" d="M80,0h435" style="stroke: rgb(204, 204, 204); stroke-opacity: 1; stroke-width: 1px;"/><path class="ygrid crisp" transform="translate(0,316.06)" d="M80,0h435" style="stroke: rgb(204, 204, 204); stroke-opacity: 1; stroke-width: 1px;"/><path class="ygrid crisp" transform="translate(0,272.09000000000003)" d="M80,0h435" style="stroke: rgb(204, 204, 204); stroke-opacity: 1; stroke-width: 1px;"/><path class="ygrid crisp" transform="translate(0,228.12)" d="M80,0h435" style="stroke: rgb(204, 204, 204); stroke-opacity: 1; stroke-width: 1px;"/><path class="ygrid crisp" transform="translate(0,184.15)" d="M80,0h435" style="stroke: rgb(204, 204, 204); stroke-opacity: 1; stroke-width: 1px;"/><path class="ygrid crisp" transform="translate(0,140.18)" d="M80,0h435" style="stroke: rgb(204, 204, 204); stroke-opacity: 1; stroke-width: 1px;"/></g></g><g class="zerolinelayer"><path class="yzl zl crisp" transform="translate(0,404)" d="M80,0h435" style="stroke: rgb(255, 255, 255); stroke-opacity: 1; stroke-width: 2px;"/></g><path class="xlines-below"/><path class="ylines-below"/><g class="overlines-below"/><g class="xaxislayer-below"/><g class="yaxislayer-below"/><g class="overaxes-below"/><g class="plot" transform="translate(80, 100)" clip-path="url('#clipb1c802xyplot')"><g class="scatterlayer mlayer"><g class="trace scatter trace54e6da" style="stroke-miterlimit: 2; opacity: 1;"><g class="fills"/><g class="errorbars"/><g class="lines"><path class="js-line" d="M0,289.93L15.54,223.54L31.07,281.14L46.61,303.12L62.14,303.12L77.68,225.29L93.21,226.17L108.75,234.97L124.29,299.6L139.82,272.34L155.36,288.17L170.89,265.31L186.43,249.04L201.96,279.38L217.5,303.56L233.04,283.77L248.57,239.8L264.11,303.12L279.64,248.16L295.18,303.12L310.71,281.58L326.25,271.9L341.79,298.72L357.32,294.33L372.86,271.46L388.39,294.33L403.93,300.04L419.46,256.07L435,139.99" style="vector-effect: non-scaling-stroke; fill: none; stroke: rgb(229, 134, 6); stroke-opacity: 1; stroke-width: 3px; opacity: 1;"/></g><g class="points"/><g class="text"/></g><g class="trace scatter trace310248" style="stroke-miterlimit: 2; opacity: 1;"><g class="fills"/><g class="errorbars"/><g class="lines"/><g class="points"/><g class="text"/></g><g class="trace scatter trace3031cb" style="stroke-miterlimit: 2; opacity: 1;"><g class="fills"/><g class="errorbars"/><g class="lines"><path class="js-line" d="M0,303.56L15.54,286.41L31.07,292.13L62.14,236.73L77.68,285.97L93.21,300.48L108.75,290.37L124.29,293.45L139.82,300.48L155.36,275.42L170.89,299.16L186.43,266.19L201.96,295.21L217.5,304L233.04,253L248.57,289.93L264.11,302.68L279.64,270.58L295.18,297.4L310.71,292.13L326.25,302.24L341.79,303.56L357.32,304L372.86,274.1L388.39,266.63L403.93,303.12L419.46,304L435,166.82" style="vector-effect: non-scaling-stroke; fill: none; stroke: rgb(82, 188, 163); stroke-opacity: 1; stroke-width: 3px; opacity: 1;"/></g><g class="points"/><g class="text"/></g><g class="trace scatter tracef47a5c" style="stroke-miterlimit: 2; opacity: 1;"><g class="fills"/><g class="errorbars"/><g class="lines"><path class="js-line" d="M0,283.77L15.54,287.73L31.07,297.84L46.61,276.3L62.14,271.46L77.68,296.53L93.21,300.04L108.75,277.62L124.29,299.6L139.82,300.92L155.36,278.06L170.89,294.33L186.43,277.18L201.96,300.92L217.5,304L233.04,278.94L248.57,271.9L264.11,300.04L279.64,282.02L295.18,302.24L310.71,292.13L326.25,291.25L341.79,300.04L357.32,303.56L372.86,279.38L388.39,248.16L403.93,303.12L419.46,287.73L435,194.52" style="vector-effect: non-scaling-stroke; fill: none; stroke: rgb(153, 201, 69); stroke-opacity: 1; stroke-width: 3px; opacity: 1;"/></g><g class="points"/><g class="text"/></g><g class="trace scatter traceb35712" style="stroke-miterlimit: 2; opacity: 1;"><g class="fills"/><g class="errorbars"/><g class="lines"><path class="js-line" d="M0,296.96L15.54,239.36L31.07,258.27L46.61,302.68L62.14,304L77.68,221.78L93.21,16L108.75,275.42L124.29,300.04L139.82,283.33L155.36,303.56L170.89,300.48L186.43,280.7L201.96,277.62L217.5,300.48L233.04,275.42L248.57,263.55L264.11,303.12L279.64,289.05L295.18,303.12L310.71,267.07L326.25,250.8L341.79,268.82L357.32,304L372.86,288.61L388.39,300.04L403.93,298.28L419.46,274.1L435,99.98" style="vector-effect: non-scaling-stroke; fill: none; stroke: rgb(204, 97, 176); stroke-opacity: 1; stroke-width: 3px; opacity: 1;"/></g><g class="points"/><g class="text"/></g><g class="trace scatter trace721de4" style="stroke-miterlimit: 2; opacity: 1;"><g class="fills"/><g class="errorbars"/><g class="lines"><path class="js-line" d="M0,286.85L15.54,209.91L31.07,281.14L46.61,303.56L62.14,302.24L77.68,256.51L93.21,258.27L108.75,241.12L124.29,301.8L139.82,295.21L155.36,285.97L170.89,243.32L186.43,216.94L201.96,284.21L217.5,304L233.04,282.45L248.57,197.15L264.11,297.84L279.64,252.56L295.18,303.12L310.71,285.09L326.25,289.49L341.79,302.68L357.32,303.12L372.86,296.96L388.39,297.84L403.93,301.36L419.46,233.21L435,161.54" style="vector-effect: non-scaling-stroke; fill: none; stroke: rgb(36, 121, 108); stroke-opacity: 1; stroke-width: 3px; opacity: 1;"/></g><g class="points"/><g class="text"/></g><g class="trace scatter trace208549" style="stroke-miterlimit: 2; opacity: 1;"><g class="fills"/><g class="errorbars"/><g class="lines"><path class="js-line" d="M0,304L15.54,304L31.07,302.24L46.61,301.36L62.14,303.12L77.68,304L93.21,303.12L108.75,301.36L124.29,304L217.5,304L233.04,303.12L248.57,301.8L264.11,298.28L279.64,303.56L295.18,304L310.71,302.24L326.25,304L357.32,304L372.86,286.85L388.39,251.24L403.93,302.68L419.46,303.56L435,302.68" style="vector-effect: non-scaling-stroke; fill: none; stroke: rgb(218, 165, 27); stroke-opacity: 1; stroke-width: 3px; opacity: 1;"/></g><g class="points"/><g class="text"/></g><g class="trace scatter tracefc0836" style="stroke-miterlimit: 2; opacity: 1;"><g class="fills"/><g class="errorbars"/><g class="lines"><path class="js-line" d="M0,298.72L15.54,195.84L31.07,275.86L46.61,303.56L62.14,304L77.68,268.38L93.21,265.31L108.75,276.3L124.29,302.24L139.82,298.28L155.36,302.24L170.89,290.37L186.43,238.05L201.96,259.15L217.5,303.56L233.04,292.13L248.57,227.05L264.11,303.56L279.64,273.66L295.18,300.48L310.71,283.77L326.25,274.98L341.79,300.48L357.32,304L372.86,294.77L388.39,298.72L403.93,303.56L419.46,251.24L435,208.15" style="vector-effect: non-scaling-stroke; fill: none; stroke: rgb(47, 138, 196); stroke-opacity: 1; stroke-width: 3px; opacity: 1;"/></g><g class="points"/><g class="text"/></g><g class="trace scatter trace5ad9c7" style="stroke-miterlimit: 2; opacity: 1;"><g class="fills"/><g class="errorbars"/><g class="lines"><path class="js-line" d="M0,277.62L15.54,238.49L31.07,289.05L46.61,280.26L62.14,212.1L77.68,281.58L93.21,291.25L108.75,239.36L124.29,289.93L139.82,293.45L155.36,244.64L170.89,283.33L186.43,248.6L201.96,298.28L217.5,304L233.04,206.39L248.57,258.27L264.11,301.36L279.64,176.93L295.18,287.73L310.71,289.05L326.25,297.4L341.79,300.04L357.32,300.04L372.86,298.28L388.39,293.45L403.93,301.36L419.46,256.95L435,49.86" style="vector-effect: non-scaling-stroke; fill: none; stroke: rgb(107, 17, 0); stroke-opacity: 1; stroke-width: 3px; opacity: 1;"/></g><g class="points"/><g class="text"/></g><g class="trace scatter trace72bb68" style="stroke-miterlimit: 2; opacity: 1;"><g class="fills"/><g class="errorbars"/><g class="lines"/><g class="points"/><g class="text"/></g><g class="trace scatter trace0703ff" style="stroke-miterlimit: 2; opacity: 1;"><g class="fills"/><g class="errorbars"/><g class="lines"><path class="js-line" d="M0,266.63L15.54,237.61L31.07,285.09L46.61,298.72L62.14,289.49L77.68,283.77L93.21,259.59L108.75,186.6L124.29,282.89L139.82,238.93L155.36,242L170.89,283.77L186.43,288.17L201.96,300.48L217.5,300.48L233.04,239.8L248.57,251.24L264.11,299.6L279.64,104.38L295.18,286.41L310.71,294.33L326.25,292.57L341.79,300.48L357.32,254.75L372.86,247.28L388.39,267.07L403.93,292.13L419.46,256.51L435,126.36" style="vector-effect: non-scaling-stroke; fill: none; stroke: rgb(165, 170, 153); stroke-opacity: 1; stroke-width: 3px; opacity: 1;"/></g><g class="points"/><g class="text"/></g></g></g><g class="overplot"/><path class="xlines-above crisp" d="M78,421H515" style="fill: none; stroke-width: 2px; stroke: rgb(204, 204, 204); stroke-opacity: 1;"/><path class="ylines-above crisp" d="M79,100V420" style="fill: none; stroke-width: 2px; stroke: rgb(204, 204, 204); stroke-opacity: 1;"/><g class="overlines-above"/><g class="xaxislayer-above"><g class="xtick"><text text-anchor="middle" x="0" y="436.4" transform="translate(95.53999999999999,0)" style="font-family: 'Open Sans', verdana, arial, sans-serif; font-size: 12px; fill: rgb(42, 63, 95); fill-opacity: 1; white-space: pre;"><tspan class="line" dy="0em" x="0" y="436.4">Feb 2</tspan><tspan class="line" dy="1.3em" x="0" y="436.4">2020</tspan></text></g><g class="xtick"><text text-anchor="middle" x="0" y="436.4" transform="translate(204.29000000000002,0)" style="font-family: 'Open Sans', verdana, arial, sans-serif; font-size: 12px; fill: rgb(42, 63, 95); fill-opacity: 1; white-space: pre;">Feb 9</text></g><g class="xtick"><text text-anchor="middle" x="0" y="436.4" transform="translate(313.03999999999996,0)" style="font-family: 'Open Sans', verdana, arial, sans-serif; font-size: 12px; fill: rgb(42, 63, 95); fill-opacity: 1; white-space: pre;">Feb 16</text></g><g class="xtick"><text text-anchor="middle" x="0" y="436.4" transform="translate(421.79,0)" style="font-family: 'Open Sans', verdana, arial, sans-serif; font-size: 12px; fill: rgb(42, 63, 95); fill-opacity: 1; white-space: pre;">Feb 23</text></g></g><g class="yaxislayer-above"><g class="ytick"><text text-anchor="end" x="75.6" y="4.199999999999999" transform="translate(0,404)" style="font-family: 'Open Sans', verdana, arial, sans-serif; font-size: 12px; fill: rgb(42, 63, 95); fill-opacity: 1; white-space: pre;">0</text></g><g class="ytick"><text text-anchor="end" x="75.6" y="4.199999999999999" transform="translate(0,360.03)" style="font-family: 'Open Sans', verdana, arial, sans-serif; font-size: 12px; fill: rgb(42, 63, 95); fill-opacity: 1; white-space: pre;">10</text></g><g class="ytick"><text text-anchor="end" x="75.6" y="4.199999999999999" transform="translate(0,316.06)" style="font-family: 'Open Sans', verdana, arial, sans-serif; font-size: 12px; fill: rgb(42, 63, 95); fill-opacity: 1; white-space: pre;">20</text></g><g class="ytick"><text text-anchor="end" x="75.6" y="4.199999999999999" transform="translate(0,272.09000000000003)" style="font-family: 'Open Sans', verdana, arial, sans-serif; font-size: 12px; fill: rgb(42, 63, 95); fill-opacity: 1; white-space: pre;">30</text></g><g class="ytick"><text text-anchor="end" x="75.6" y="4.199999999999999" transform="translate(0,228.12)" style="font-family: 'Open Sans', verdana, arial, sans-serif; font-size: 12px; fill: rgb(42, 63, 95); fill-opacity: 1; white-space: pre;">40</text></g><g class="ytick"><text text-anchor="end" x="75.6" y="4.199999999999999" transform="translate(0,184.15)" style="font-family: 'Open Sans', verdana, arial, sans-serif; font-size: 12px; fill: rgb(42, 63, 95); fill-opacity: 1; white-space: pre;">50</text></g><g class="ytick"><text text-anchor="end" x="75.6" y="4.199999999999999" transform="translate(0,140.18)" style="font-family: 'Open Sans', verdana, arial, sans-serif; font-size: 12px; fill: rgb(42, 63, 95); fill-opacity: 1; white-space: pre;">60</text></g></g><g class="overaxes-above"/></g></g><g class="polarlayer"/><g class="ternarylayer"/><g class="geolayer"/><g class="funnelarealayer"/><g class="pielayer"/><g class="treemaplayer"/><g class="sunburstlayer"/><g class="glimages"/><defs id="topdefs-b1c802"><g class="clips"/><clipPath id="legendb1c802"><rect width="164" height="301" x="0" y="0"/></clipPath></defs><g class="layer-above"><g class="imagelayer"/><g class="shapelayer"/></g><g class="infolayer"><g class="legend" pointer-events="all" transform="translate(523.7, 100)"><rect class="bg" shape-rendering="crispEdges" style="stroke: rgb(68, 68, 68); stroke-opacity: 1; fill: rgb(255, 255, 255); fill-opacity: 1; stroke-width: 0px;" width="164" height="301" x="0" y="0"/><g class="scrollbox" transform="translate(0, 0)" clip-path="url('#legendb1c802')"><g class="groups"><g class="traces" transform="translate(0, 18.200000000000003)" style="opacity: 1;"><text class="legendtext user-select-none" text-anchor="start" x="40" y="7.0200000000000005" style="font-family: Arial; font-size: 18px; fill: rgb(82, 82, 82); fill-opacity: 1; white-space: pre;">Bouenza</text><g class="layers" style="opacity: 1;"><g class="legendfill"/><g class="legendlines"><path class="js-line" d="M5,0h30" style="fill: none; stroke: rgb(229, 134, 6); stroke-opacity: 1; stroke-width: 3px;"/></g><g class="legendsymbols"><g class="legendpoints"/></g></g><rect class="legendtoggle" pointer-events="all" x="0" y="-13.200000000000001" width="158.046875" height="26.400000000000002" style="cursor: pointer; fill: rgb(0, 0, 0); fill-opacity: 0;"/></g><g class="traces" transform="translate(0, 44.6)" style="opacity: 1;"><text class="legendtext user-select-none" text-anchor="start" x="40" y="7.0200000000000005" style="font-family: Arial; font-size: 18px; fill: rgb(82, 82, 82); fill-opacity: 1; white-space: pre;">Brazzaville</text><g class="layers" style="opacity: 1;"><g class="legendfill"/><g class="legendlines"><path class="js-line" d="M5,0h30" style="fill: none; stroke: rgb(93, 105, 177); stroke-opacity: 1; stroke-width: 3px;"/></g><g class="legendsymbols"><g class="legendpoints"/></g></g><rect class="legendtoggle" pointer-events="all" x="0" y="-13.200000000000001" width="158.046875" height="26.400000000000002" style="cursor: pointer; fill: rgb(0, 0, 0); fill-opacity: 0;"/></g><g class="traces" transform="translate(0, 71)" style="opacity: 1;"><text class="legendtext user-select-none" text-anchor="start" x="40" y="7.0200000000000005" style="font-family: Arial; font-size: 18px; fill: rgb(82, 82, 82); fill-opacity: 1; white-space: pre;">Cuvette</text><g class="layers" style="opacity: 1;"><g class="legendfill"/><g class="legendlines"><path class="js-line" d="M5,0h30" style="fill: none; stroke: rgb(82, 188, 163); stroke-opacity: 1; stroke-width: 3px;"/></g><g class="legendsymbols"><g class="legendpoints"/></g></g><rect class="legendtoggle" pointer-events="all" x="0" y="-13.200000000000001" width="158.046875" height="26.400000000000002" style="cursor: pointer; fill: rgb(0, 0, 0); fill-opacity: 0;"/></g><g class="traces" transform="translate(0, 97.4)" style="opacity: 1;"><text class="legendtext user-select-none" text-anchor="start" x="40" y="7.0200000000000005" style="font-family: Arial; font-size: 18px; fill: rgb(82, 82, 82); fill-opacity: 1; white-space: pre;">Cuvette-Ouest</text><g class="layers" style="opacity: 1;"><g class="legendfill"/><g class="legendlines"><path class="js-line" d="M5,0h30" style="fill: none; stroke: rgb(153, 201, 69); stroke-opacity: 1; stroke-width: 3px;"/></g><g class="legendsymbols"><g class="legendpoints"/></g></g><rect class="legendtoggle" pointer-events="all" x="0" y="-13.200000000000001" width="158.046875" height="26.400000000000002" style="cursor: pointer; fill: rgb(0, 0, 0); fill-opacity: 0;"/></g><g class="traces" transform="translate(0, 123.80000000000001)" style="opacity: 1;"><text class="legendtext user-select-none" text-anchor="start" x="40" y="7.0200000000000005" style="font-family: Arial; font-size: 18px; fill: rgb(82, 82, 82); fill-opacity: 1; white-space: pre;">Kouilou</text><g class="layers" style="opacity: 1;"><g class="legendfill"/><g class="legendlines"><path class="js-line" d="M5,0h30" style="fill: none; stroke: rgb(204, 97, 176); stroke-opacity: 1; stroke-width: 3px;"/></g><g class="legendsymbols"><g class="legendpoints"/></g></g><rect class="legendtoggle" pointer-events="all" x="0" y="-13.200000000000001" width="158.046875" height="26.400000000000002" style="cursor: pointer; fill: rgb(0, 0, 0); fill-opacity: 0;"/></g><g class="traces" transform="translate(0, 150.2)" style="opacity: 1;"><text class="legendtext user-select-none" text-anchor="start" x="40" y="7.0200000000000005" style="font-family: Arial; font-size: 18px; fill: rgb(82, 82, 82); fill-opacity: 1; white-space: pre;">Lekoumou</text><g class="layers" style="opacity: 1;"><g class="legendfill"/><g class="legendlines"><path class="js-line" d="M5,0h30" style="fill: none; stroke: rgb(36, 121, 108); stroke-opacity: 1; stroke-width: 3px;"/></g><g class="legendsymbols"><g class="legendpoints"/></g></g><rect class="legendtoggle" pointer-events="all" x="0" y="-13.200000000000001" width="158.046875" height="26.400000000000002" style="cursor: pointer; fill: rgb(0, 0, 0); fill-opacity: 0;"/></g><g class="traces" transform="translate(0, 176.6)" style="opacity: 1;"><text class="legendtext user-select-none" text-anchor="start" x="40" y="7.0200000000000005" style="font-family: Arial; font-size: 18px; fill: rgb(82, 82, 82); fill-opacity: 1; white-space: pre;">Likouala</text><g class="layers" style="opacity: 1;"><g class="legendfill"/><g class="legendlines"><path class="js-line" d="M5,0h30" style="fill: none; stroke: rgb(218, 165, 27); stroke-opacity: 1; stroke-width: 3px;"/></g><g class="legendsymbols"><g class="legendpoints"/></g></g><rect class="legendtoggle" pointer-events="all" x="0" y="-13.200000000000001" width="158.046875" height="26.400000000000002" style="cursor: pointer; fill: rgb(0, 0, 0); fill-opacity: 0;"/></g><g class="traces" transform="translate(0, 203)" style="opacity: 1;"><text class="legendtext user-select-none" text-anchor="start" x="40" y="7.0200000000000005" style="font-family: Arial; font-size: 18px; fill: rgb(82, 82, 82); fill-opacity: 1; white-space: pre;">Niari</text><g class="layers" style="opacity: 1;"><g class="legendfill"/><g class="legendlines"><path class="js-line" d="M5,0h30" style="fill: none; stroke: rgb(47, 138, 196); stroke-opacity: 1; stroke-width: 3px;"/></g><g class="legendsymbols"><g class="legendpoints"/></g></g><rect class="legendtoggle" pointer-events="all" x="0" y="-13.200000000000001" width="158.046875" height="26.400000000000002" style="cursor: pointer; fill: rgb(0, 0, 0); fill-opacity: 0;"/></g><g class="traces" transform="translate(0, 229.4)" style="opacity: 1;"><text class="legendtext user-select-none" text-anchor="start" x="40" y="7.0200000000000005" style="font-family: Arial; font-size: 18px; fill: rgb(82, 82, 82); fill-opacity: 1; white-space: pre;">Plateaux</text><g class="layers" style="opacity: 1;"><g class="legendfill"/><g class="legendlines"><path class="js-line" d="M5,0h30" style="fill: none; stroke: rgb(107, 17, 0); stroke-opacity: 1; stroke-width: 3px;"/></g><g class="legendsymbols"><g class="legendpoints"/></g></g><rect class="legendtoggle" pointer-events="all" x="0" y="-13.200000000000001" width="158.046875" height="26.400000000000002" style="cursor: pointer; fill: rgb(0, 0, 0); fill-opacity: 0;"/></g><g class="traces" transform="translate(0, 255.8)" style="opacity: 1;"><text class="legendtext user-select-none" text-anchor="start" x="40" y="7.0200000000000005" style="font-family: Arial; font-size: 18px; fill: rgb(82, 82, 82); fill-opacity: 1; white-space: pre;">Point-Noire</text><g class="layers" style="opacity: 1;"><g class="legendfill"/><g class="legendlines"><path class="js-line" d="M5,0h30" style="fill: none; stroke: rgb(237, 100, 90); stroke-opacity: 1; stroke-width: 3px;"/></g><g class="legendsymbols"><g class="legendpoints"/></g></g><rect class="legendtoggle" pointer-events="all" x="0" y="-13.200000000000001" width="158.046875" height="26.400000000000002" style="cursor: pointer; fill: rgb(0, 0, 0); fill-opacity: 0;"/></g><g class="traces" transform="translate(0, 282.2)" style="opacity: 1;"><text class="legendtext user-select-none" text-anchor="start" x="40" y="7.0200000000000005" style="font-family: Arial; font-size: 18px; fill: rgb(82, 82, 82); fill-opacity: 1; white-space: pre;">Pool</text><g class="layers" style="opacity: 1;"><g class="legendfill"/><g class="legendlines"><path class="js-line" d="M5,0h30" style="fill: none; stroke: rgb(165, 170, 153); stroke-opacity: 1; stroke-width: 3px;"/></g><g class="legendsymbols"><g class="legendpoints"/></g></g><rect class="legendtoggle" pointer-events="all" x="0" y="-13.200000000000001" width="158.046875" height="26.400000000000002" style="cursor: pointer; fill: rgb(0, 0, 0); fill-opacity: 0;"/></g></g></g><rect class="scrollbar" rx="20" ry="3" width="0" height="0" style="fill: rgb(128, 139, 164); fill-opacity: 1;" x="0" y="0"/></g><g class="g-gtitle"/><g class="g-xtitle"><text class="xtitle" x="297.5" y="484" text-anchor="middle" style="font-family: 'Open Sans', verdana, arial, sans-serif; font-size: 20px; fill: rgb(42, 63, 95); opacity: 1; font-weight: normal; white-space: pre;">Date (UTC)</text></g><g class="g-ytitle"><text class="ytitle" transform="rotate(-90,32.25,260)" x="32.25" y="260" text-anchor="middle" style="font-family: 'Open Sans', verdana, arial, sans-serif; font-size: 20px; fill: rgb(42, 63, 95); opacity: 1; font-weight: normal; white-space: pre;">Precipitation (mm)</text></g><g class="annotation" data-index="0" style="opacity: 1;"><g class="annotation-text-g" transform="rotate(0,293,65.49999999999997)"><g class="cursor-pointer" transform="translate(80, 47)"><rect class="bg" x="0.5" y="0.5" width="425" height="36" style="stroke-width: 1px; stroke: rgb(0, 0, 0); stroke-opacity: 0; fill: rgb(0, 0, 0); fill-opacity: 0;"/><text class="annotation-text" text-anchor="middle" x="212.9375" y="29" style="font-family: Arial; font-size: 30px; fill: rgb(37, 37, 37); fill-opacity: 1; white-space: pre;">GSMaP Precipitation by Region</text></g></g></g></g></svg>