<svg class="main-svg" xmlns="http://www.w3.org/2000/svg" xmlns:xlink="http://www.w3.org/1999/xlink" width="700" height="500" viewBox="0 0 700 500"><rect x="0" y="0" width="700" height="500" style="fill: rgb(255, 255, 255); fill-opacity: 1;"/><defs id="defs-6be265"><g class="clips"><clipPath id="clip6be265xyplot" class="plotclip"><rect width="435" height="320"/></clipPath><clipPath class="axesclip" id="clip6be265x"><rect x="80" y="0" width="435" height="500"/></clipPath><clipPath class="axesclip" id="clip6be265y"><rect x="0" y="100" width="700" height="320"/></clipPath><clipPath class="axesclip" id="clip6be265xy"><rect x="80" y="100" width="435" height="320"/></clipPath></g><g class="gradients"/></defs><g class="bglayer"/><g class="layer-below"><g class="imagelayer"/><g class="shapelayer"/></g><g class="cartesianlayer"><g class="subplot xy"><g class="layer-subplot"><g class="shapelayer"/><g class="imagelayer"/></g><g class="gridlayer"><g class="x"><path class="xgrid crisp" transform="translate(138,0)" d="M0,100v320" style="stroke: rgb(204, 204, 204); stroke-opacity: 1; stroke-width: 1px;"/><path class="xgrid crisp" transform="translate(239.5,0)" d="M0,100v320" style="stroke: rgb(204, 204, 204); stroke-opacity: 1; stroke-width: 1px;"/><path class="xgrid crisp" transform="translate(341,0)" d="M0,100v320" style="stroke: rgb(204, 204, 204); stroke-opacity: 1; stroke-width: 1px;"/><path class="xgrid crisp" transform="translate(442.5,0)" d="M0,100v320" style="stroke: rgb(204, 204, 204); stroke-opacity: 1; stroke-width: 1px;"/></g><g class="y"><path class="ygrid crisp" transform="translate(0,366.84)" d="M80,0h435" style="stroke: rgb(204, 204, 204); stroke-opacity: 1; stroke-width: 1px;"/><path class="ygrid crisp" transform="translate(0,329.68)" d="M80,0h435" style="stroke: rgb(204, 204, 204); stroke-opacity: 1; stroke-width: 1px;"/><path class="ygrid crisp" transform="translate(0,292.52)" d="M80,0h435" style="stroke: rgb(204, 204, 204); stroke-opacity: 1; stroke-width: 1px;"/><path class="ygrid crisp" transform="translate(0,255.35)" d="M80,0h435" style="stroke: rgb(204, 204, 204); stroke-opacity: 1; stroke-width: 1px;"/><path class="ygrid crisp" transform="translate(0,218.19)" d="M80,0h435" style="stroke: rgb(204, 204, 204); stroke-opacity: 1; stroke-width: 1px;"/><path class="ygrid crisp" transform="translate(0,181.03)" d="M80,0h435" style="stroke: rgb(204, 204, 204); stroke-opacity: 1; stroke-width: 1px;"/><path class="ygrid crisp" transform="translate(0,143.87)" d="M80,0h435" style="stroke: rgb(204, 204, 204); stroke-opacity: 1; stroke-width: 1px;"/><path class="ygrid crisp" transform="translate(0,106.71)" d="M80,0h435" style="stroke: rgb(204, 204, 204); stroke-opacity: 1; stroke-width: 1px;"/></g></g><g class="zerolinelayer"><path class="yzl zl crisp" transform="translate(0,404)" d="M80,0h435" style="stroke: rgb(255, 255, 255); stroke-opacity: 1; stroke-width: 2px;"/></g><path class="xlines-below"/><path class="ylines-below"/><g class="overlines-below"/><g class="xaxislayer-below"/><g class="yaxislayer-below"/><g class="overaxes-below"/><g class="plot" transform="translate(80, 100)" clip-path="url('#clip6be265xyplot')"><g class="scatterlayer mlayer"><g class="trace scatter tracec71ff9" style="stroke-miterlimit: 2; opacity: 1;"><g class="fills"/><g class="errorbars"/><g class="lines"><path class="js-line" d="M0,294.71L14.5,243.43L29,226.7L43.5,277.24L58,301.03L72.5,247.51L87,255.32L101.5,174.68L116,250.86L130.5,298.43L145,303.26L159.5,281.33L174,299.54L188.5,304L203,281.7L217.5,291.37L232,289.51L246.5,289.88L261,299.91L275.5,286.91L290,296.2L304.5,300.28L319,279.1L333.5,291.74L348,298.43L377,303.63L391.5,292.48L406,284.68L420.5,286.53L435,283.19" style="vector-effect: non-scaling-stroke; fill: none; stroke: rgb(229, 134, 6); stroke-opacity: 1; stroke-width: 3px; opacity: 1;"/></g><g class="points"/><g class="text"/></g><g class="trace scatter trace5f5aa4" style="stroke-miterlimit: 2; opacity: 1;"><g class="fills"/><g class="errorbars"/><g class="lines"><path class="js-line" d="M0,282.82L14.5,302.14L29,224.1L43.5,281.7L58,303.26L72.5,157.58L87,264.61L101.5,16L116,142.35L130.5,272.41L145,302.14L159.5,304L174,304L188.5,304L203,302.89L217.5,304L232,304L275.5,303.63L290,288.02L304.5,302.14L319,90.32L333.5,237.11L348,287.65L362.5,276.87L377,299.91L391.5,284.3L406,278.73L420.5,178.77L435,131.57" style="vector-effect: non-scaling-stroke; fill: none; stroke: rgb(93, 105, 177); stroke-opacity: 1; stroke-width: 3px; opacity: 1;"/></g><g class="points"/><g class="text"/></g><g class="trace scatter trace68a7a0" style="stroke-miterlimit: 2; opacity: 1;"><g class="fills"/><g class="errorbars"/><g class="lines"><path class="js-line" d="M0,256.43L14.5,296.57L29,304L87,304L101.5,301.77L116,272.41L130.5,279.85L145,301.77L159.5,304L217.5,304L232,299.17L246.5,302.51L261,303.26L275.5,297.68L290,301.77L319,303.63L333.5,304L406,303.63L420.5,293.22L435,300.66" style="vector-effect: non-scaling-stroke; fill: none; stroke: rgb(82, 188, 163); stroke-opacity: 1; stroke-width: 3px; opacity: 1;"/></g><g class="points"/><g class="text"/></g><g class="trace scatter trace2824dd" style="stroke-miterlimit: 2; opacity: 1;"><g class="fills"/><g class="errorbars"/><g class="lines"><path class="js-line" d="M0,284.3L14.5,301.4L29,304L87,304L101.5,291.74L116,274.64L130.5,286.53L145,303.26L159.5,304L188.5,304L203,302.51L217.5,302.14L232,286.16L246.5,301.4L261,297.31L275.5,289.14L290,300.66L304.5,294.71L319,301.77L333.5,304L348,304L377,304L391.5,297.68L406,296.94L420.5,295.08L435,300.28" style="vector-effect: non-scaling-stroke; fill: none; stroke: rgb(153, 201, 69); stroke-opacity: 1; stroke-width: 3px; opacity: 1;"/></g><g class="points"/><g class="text"/></g><g class="trace scatter trace631abf" style="stroke-miterlimit: 2; opacity: 1;"><g class="fills"/><g class="errorbars"/><g class="lines"><path class="js-line" d="M0,293.59L14.5,266.1L29,212.95L43.5,277.62L58,301.77L72.5,275.01L87,238.97L101.5,190.29L116,278.36L130.5,280.22L145,301.77L159.5,300.66L174,302.89L188.5,303.63L203,285.79L217.5,291.37L232,256.43L261,303.26L275.5,302.51L290,302.51L304.5,304L319,294.34L333.5,290.62L348,298.05L362.5,285.79L377,302.51L391.5,286.91L406,256.81L420.5,291.74L435,288.76" style="vector-effect: non-scaling-stroke; fill: none; stroke: rgb(204, 97, 176); stroke-opacity: 1; stroke-width: 3px; opacity: 1;"/></g><g class="points"/><g class="text"/></g><g class="trace scatter tracee99786" style="stroke-miterlimit: 2; opacity: 1;"><g class="fills"/><g class="errorbars"/><g class="lines"><path class="js-line" d="M0,301.77L14.5,229.68L29,236.37L43.5,298.05L58,302.51L72.5,229.68L87,288.76L101.5,184.34L116,237.48L130.5,300.28L145,304L159.5,272.04L174,298.05L188.5,304L203,283.19L217.5,296.57L232,289.51L246.5,298.43L261,298.05L275.5,271.3L290,294.34L319,295.82L333.5,301.77L348,304L362.5,304L377,304L391.5,296.94L406,292.85L420.5,283.93L435,293.97" style="vector-effect: non-scaling-stroke; fill: none; stroke: rgb(36, 121, 108); stroke-opacity: 1; stroke-width: 3px; opacity: 1;"/></g><g class="points"/><g class="text"/></g><g class="trace scatter trace364f6a" style="stroke-miterlimit: 2; opacity: 1;"><g class="fills"/><g class="errorbars"/><g class="lines"><path class="js-line" d="M0,302.89L29,304L43.5,304L101.5,304L116,300.28L130.5,286.53L145,302.14L159.5,304L174,304L406,304L420.5,302.89L435,303.63" style="vector-effect: non-scaling-stroke; fill: none; stroke: rgb(218, 165, 27); stroke-opacity: 1; stroke-width: 3px; opacity: 1;"/></g><g class="points"/><g class="text"/></g><g class="trace scatter trace0368a4" style="stroke-miterlimit: 2; opacity: 1;"><g class="fills"/><g class="errorbars"/><g class="lines"><path class="js-line" d="M0,301.4L14.5,253.09L29,225.59L43.5,292.11L58,301.77L72.5,254.2L87,286.91L101.5,197.35L116,246.03L130.5,299.91L145,304L159.5,293.59L174,301.4L188.5,304L203,295.08L217.5,301.03L232,297.31L246.5,298.43L261,303.26L275.5,297.68L290,302.51L304.5,303.63L319,299.54L333.5,301.4L348,301.77L377,304L391.5,301.4L406,295.82L420.5,288.76L435,290.99" style="vector-effect: non-scaling-stroke; fill: none; stroke: rgb(47, 138, 196); stroke-opacity: 1; stroke-width: 3px; opacity: 1;"/></g><g class="points"/><g class="text"/></g><g class="trace scatter tracee06e47" style="stroke-miterlimit: 2; opacity: 1;"><g class="fills"/><g class="errorbars"/><g class="lines"><path class="js-line" d="M0,231.54L14.5,297.68L29,301.77L43.5,303.63L58,304L72.5,300.66L87,303.26L101.5,273.16L116,238.97L130.5,286.53L145,303.63L188.5,304L203,299.54L217.5,303.63L232,264.61L246.5,295.45L261,287.28L275.5,268.33L290,290.25L304.5,280.59L319,295.08L333.5,302.89L348,304L377,304L391.5,287.28L406,283.56L420.5,298.43L435,302.51" style="vector-effect: non-scaling-stroke; fill: none; stroke: rgb(107, 17, 0); stroke-opacity: 1; stroke-width: 3px; opacity: 1;"/></g><g class="points"/><g class="text"/></g><g class="trace scatter trace730d5d" style="stroke-miterlimit: 2; opacity: 1;"><g class="fills"/><g class="errorbars"/><g class="lines"><path class="js-line" d="M0,297.68L14.5,287.28L29,134.17L43.5,279.47L58,304L72.5,273.16L87,196.98L101.5,206.64L116,279.47L130.5,251.6L145,299.17L159.5,303.26L174,304L188.5,303.26L203,263.12L217.5,278.73L232,240.45L246.5,270.55L261,303.63L290,301.03L304.5,304L319,298.8L333.5,268.33L348,301.03L362.5,260.52L377,302.51L391.5,282.07L406,212.95L420.5,292.48L435,285.42" style="vector-effect: non-scaling-stroke; fill: none; stroke: rgb(237, 100, 90); stroke-opacity: 1; stroke-width: 3px; opacity: 1;"/></g><g class="points"/><g class="text"/></g><g class="trace scatter tracecb78de" style="stroke-miterlimit: 2; opacity: 1;"><g class="fills"/><g class="errorbars"/><g class="lines"><path class="js-line" d="M0,279.85L14.5,293.22L29,245.66L43.5,288.76L58,303.63L72.5,222.62L87,275.01L101.5,197.35L116,197.72L130.5,286.91L145,303.26L159.5,302.14L174,303.63L188.5,304L203,291.74L217.5,303.26L232,276.87L246.5,291.74L261,290.25L275.5,278.36L290,286.53L304.5,286.53L319,216.67L333.5,267.21L348,298.8L362.5,296.94L377,302.89L391.5,279.1L406,273.53L420.5,265.35L435,243.43" style="vector-effect: non-scaling-stroke; fill: none; stroke: rgb(165, 170, 153); stroke-opacity: 1; stroke-width: 3px; opacity: 1;"/></g><g class="points"/><g class="text"/></g></g></g><g class="overplot"/><path class="xlines-above crisp" d="M78,421H515" style="fill: none; stroke-width: 2px; stroke: rgb(204, 204, 204); stroke-opacity: 1;"/><path class="ylines-above crisp" d="M79,100V420" style="fill: none; stroke-width: 2px; stroke: rgb(204, 204, 204); stroke-opacity: 1;"/><g class="overlines-above"/><g class="xaxislayer-above"><g class="xtick"><text text-anchor="middle" x="0" y="436.4" transform="translate(138,0)" style="font-family: 'Open Sans', verdana, arial, sans-serif; font-size: 12px; fill: rgb(42, 63, 95); fill-opacity: 1; white-space: pre;"><tspan class="line" dy="0em" x="0" y="436.4">Jan 5</tspan><tspan class="line" dy="1.3em" x="0" y="436.4">2020</tspan></text></g><g class="xtick"><text text-anchor="middle" x="0" y="436.4" transform="translate(239.5,0)" style="font-family: 'Open Sans', verdana, arial, sans-serif; font-size: 12px; fill: rgb(42, 63, 95); fill-opacity: 1; white-space: pre;">Jan 12</text></g><g class="xtick"><text text-anchor="middle" x="0" y="436.4" transform="translate(341,0)" style="font-family: 'Open Sans', verdana, arial, sans-serif; font-size: 12px; fill: rgb(42, 63, 95); fill-opacity: 1; white-space: pre;">Jan 19</text></g><g class="xtick"><text text-anchor="middle" x="0" y="436.4" transform="translate(442.5,0)" style="font-family: 'Open Sans', verdana, arial, sans-serif; font-size: 12px; fill: rgb(42, 63, 95); fill-opacity: 1; white-space: pre;">Jan 26</text></g></g><g class="yaxislayer-above"><g class="ytick"><text text-anchor="end" x="75.6" y="4.199999999999999" transform="translate(0,404)" style="font-family: 'Open Sans', verdana, arial, sans-serif; font-size: 12px; fill: rgb(42, 63, 95); fill-opacity: 1; white-space: pre;">0</text></g><g class="ytick"><text text-anchor="end" x="75.6" y="4.199999999999999" transform="translate(0,366.84)" style="font-family: 'Open Sans', verdana, arial, sans-serif; font-size: 12px; fill: rgb(42, 63, 95); fill-opacity: 1; white-space: pre;">10</text></g><g class="ytick"><text text-anchor="end" x="75.6" y="4.199999999999999" transform="translate(0,329.68)" style="font-family: 'Open Sans', verdana, arial, sans-serif; font-size: 12px; fill: rgb(42, 63, 95); fill-opacity: 1; white-space: pre;">20</text></g><g class="ytick"><text text-anchor="end" x="75.6" y="4.199999999999999" transform="translate(0,292.52)" style="font-family: 'Open Sans', verdana, arial, sans-serif; font-size: 12px; fill: rgb(42, 63, 95); fill-opacity: 1; white-space: pre;">30</text></g><g class="ytick"><text text-anchor="end" x="75.6" y="4.199999999999999" transform="translate(0,255.35)" style="font-family: 'Open Sans', verdana, arial, sans-serif; font-size: 12px; fill: rgb(42, 63, 95); fill-opacity: 1; white-space: pre;">40</text></g><g class="ytick"><text text-anchor="end" x="75.6" y="4.199999999999999" transform="translate(0,218.19)" style="font-family: 'Open Sans', verdana, arial, sans-serif; font-size: 12px; fill: rgb(42, 63, 95); fill-opacity: 1; white-space: pre;">50</text></g><g class="ytick"><text text-anchor="end" x="75.6" y="4.199999999999999" transform="translate(0,181.03)" style="font-family: 'Open Sans', verdana, arial, sans-serif; font-size: 12px; fill: rgb(42, 63, 95); fill-opacity: 1; white-space: pre;">60</text></g><g class="ytick"><text text-anchor="end" x="75.6" y="4.199999999999999" transform="translate(0,143.87)" style="font-family: 'Open Sans', verdana, arial, sans-serif; font-size: 12px; fill: rgb(42, 63, 95); fill-opacity: 1; white-space: pre;">70</text></g><g class="ytick"><text text-anchor="end" x="75.6" y="4.199999999999999" transform="translate(0,106.71)" style="font-family: 'Open Sans', verdana, arial, sans-serif; font-size: 12px; fill: rgb(42, 63, 95); fill-opacity: 1; white-space: pre;">80</text></g></g><g class="overaxes-above"/></g></g><g class="polarlayer"/><g class="ternarylayer"/><g class="geolayer"/><g class="funnelarealayer"/><g class="pielayer"/><g class="treemaplayer"/><g class="sunburstlayer"/><g class="glimages"/><defs id="topdefs-6be265"><g class="clips"/><clipPath id="legend6be265"><rect width="164" height="301" x="0" y="0"/></clipPath></defs><g class="layer-above"><g class="imagelayer"/><g class="shapelayer"/></g><g class="infolayer"><g class="legend" pointer-events="all" transform="translate(523.7, 100)"><rect class="bg" shape-rendering="crispEdges" style="stroke: rgb(68, 68, 68); stroke-opacity: 1; fill: rgb(255, 255, 255); fill-opacity: 1; stroke-width: 0px;" width="164" height="301" x="0" y="0"/><g class="scrollbox" transform="translate(0, 0)" clip-path="url('#legend6be265')"><g class="groups"><g class="traces" transform="translate(0, 18.200000000000003)" style="opacity: 1;"><text class="legendtext user-select-none" text-anchor="start" x="40" y="7.0200000000000005" style="font-family: Arial; font-size: 18px; fill: rgb(82, 82, 82); fill-opacity: 1; white-space: pre;">Bouenza</text><g class="layers" style="opacity: 1;"><g class="legendfill"/><g class="legendlines"><path class="js-line" d="M5,0h30" style="fill: none; stroke: rgb(229, 134, 6); stroke-opacity: 1; stroke-width: 3px;"/></g><g class="legendsymbols"><g class="legendpoints"/></g></g><rect class="legendtoggle" pointer-events="all" x="0" y="-13.200000000000001" width="158.046875" height="26.400000000000002" style="cursor: pointer; fill: rgb(0, 0, 0); fill-opacity: 0;"/></g><g class="traces" transform="translate(0, 44.6)" style="opacity: 1;"><text class="legendtext user-select-none" text-anchor="start" x="40" y="7.0200000000000005" style="font-family: Arial; font-size: 18px; fill: rgb(82, 82, 82); fill-opacity: 1; white-space: pre;">Brazzaville</text><g class="layers" style="opacity: 1;"><g class="legendfill"/><g class="legendlines"><path class="js-line" d="M5,0h30" style="fill: none; stroke: rgb(93, 105, 177); stroke-opacity: 1; stroke-width: 3px;"/></g><g class="legendsymbols"><g class="legendpoints"/></g></g><rect class="legendtoggle" pointer-events="all" x="0" y="-13.200000000000001" width="158.046875" height="26.400000000000002" style="cursor: pointer; fill: rgb(0, 0, 0); fill-opacity: 0;"/></g><g class="traces" transform="translate(0, 71)" style="opacity: 1;"><text class="legendtext user-select-none" text-anchor="start" x="40" y="7.0200000000000005" style="font-family: Arial; font-size: 18px; fill: rgb(82, 82, 82); fill-opacity: 1; white-space: pre;">Cuvette</text><g class="layers" style="opacity: 1;"><g class="legendfill"/><g class="legendlines"><path class="js-line" d="M5,0h30" style="fill: none; stroke: rgb(82, 188, 163); stroke-opacity: 1; stroke-width: 3px;"/></g><g class="legendsymbols"><g class="legendpoints"/></g></g><rect class="legendtoggle" pointer-events="all" x="0" y="-13.200000000000001" width="158.046875" height="26.400000000000002" style="cursor: pointer; fill: rgb(0, 0, 0); fill-opacity: 0;"/></g><g class="traces" transform="translate(0, 97.4)" style="opacity: 1;"><text class="legendtext user-select-none" text-anchor="start" x="40" y="7.0200000000000005" style="font-family: Arial; font-size: 18px; fill: rgb(82, 82, 82); fill-opacity: 1; white-space: pre;">Cuvette-Ouest</text><g class="layers" style="opacity: 1;"><g class="legendfill"/><g class="legendlines"><path class="js-line" d="M5,0h30" style="fill: none; stroke: rgb(153, 201, 69); stroke-opacity: 1; stroke-width: 3px;"/></g><g class="legendsymbols"><g class="legendpoints"/></g></g><rect class="legendtoggle" pointer-events="all" x="0" y="-13.200000000000001" width="158.046875" height="26.400000000000002" style="cursor: pointer; fill: rgb(0, 0, 0); fill-opacity: 0;"/></g><g class="traces" transform="translate(0, 123.80000000000001)" style="opacity: 1;"><text class="legendtext user-select-none" text-anchor="start" x="40" y="7.0200000000000005" style="font-family: Arial; font-size: 18px; fill: rgb(82, 82, 82); fill-opacity: 1; white-space: pre;">Kouilou</text><g class="layers" style="opacity: 1;"><g class="legendfill"/><g class="legendlines"><path class="js-line" d="M5,0h30" style="fill: none; stroke: rgb(204, 97, 176); stroke-opacity: 1; stroke-width: 3px;"/></g><g class="legendsymbols"><g class="legendpoints"/></g></g><rect class="legendtoggle" pointer-events="all" x="0" y="-13.200000000000001" width="158.046875" height="26.400000000000002" style="cursor: pointer; fill: rgb(0, 0, 0); fill-opacity: 0;"/></g><g class="traces" transform="translate(0, 150.2)" style="opacity: 1;"><text class="legendtext user-select-none" text-anchor="start" x="40" y="7.0200000000000005" style="font-family: Arial; font-size: 18px; fill: rgb(82, 82, 82); fill-opacity: 1; white-space: pre;">Lekoumou</text><g class="layers" style="opacity: 1;"><g class="legendfill"/><g class="legendlines"><path class="js-line" d="M5,0h30" style="fill: none; stroke: rgb(36, 121, 108); stroke-opacity: 1; stroke-width: 3px;"/></g><g class="legendsymbols"><g class="legendpoints"/></g></g><rect class="legendtoggle" pointer-events="all" x="0" y="-13.200000000000001" width="158.046875" height="26.400000000000002" style="cursor: pointer; fill: rgb(0, 0, 0); fill-opacity: 0;"/></g><g class="traces" transform="translate(0, 176.6)" style="opacity: 1;"><text class="legendtext user-select-none" text-anchor="start" x="40" y="7.0200000000000005" style="font-family: Arial; font-size: 18px; fill: rgb(82, 82, 82); fill-opacity: 1; white-space: pre;">Likouala</text><g class="layers" style="opacity: 1;"><g class="legendfill"/><g class="legendlines"><path class="js-line" d="M5,0h30" style="fill: none; stroke: rgb(218, 165, 27); stroke-opacity: 1; stroke-width: 3px;"/></g><g class="legendsymbols"><g class="legendpoints"/></g></g><rect class="legendtoggle" pointer-events="all" x="0" y="-13.200000000000001" width="158.046875" height="26.400000000000002" style="cursor: pointer; fill: rgb(0, 0, 0); fill-opacity: 0;"/></g><g class="traces" transform="translate(0, 203)" style="opacity: 1;"><text class="legendtext user-select-none" text-anchor="start" x="40" y="7.0200000000000005" style="font-family: Arial; font-size: 18px; fill: rgb(82, 82, 82); fill-opacity: 1; white-space: pre;">Niari</text><g class="layers" style="opacity: 1;"><g class="legendfill"/><g class="legendlines"><path class="js-line" d="M5,0h30" style="fill: none; stroke: rgb(47, 138, 196); stroke-opacity: 1; stroke-width: 3px;"/></g><g class="legendsymbols"><g class="legendpoints"/></g></g><rect class="legendtoggle" pointer-events="all" x="0" y="-13.200000000000001" width="158.046875" height="26.400000000000002" style="cursor: pointer; fill: rgb(0, 0, 0); fill-opacity: 0;"/></g><g class="traces" transform="translate(0, 229.4)" style="opacity: 1;"><text class="legendtext user-select-none" text-anchor="start" x="40" y="7.0200000000000005" style="font-family: Arial; font-size: 18px; fill: rgb(82, 82, 82); fill-opacity: 1; white-space: pre;">Plateaux</text><g class="layers" style="opacity: 1;"><g class="legendfill"/><g class="legendlines"><path class="js-line" d="M5,0h30" style="fill: none; stroke: rgb(107, 17, 0); stroke-opacity: 1; stroke-width: 3px;"/></g><g class="legendsymbols"><g class="legendpoints"/></g></g><rect class="legendtoggle" pointer-events="all" x="0" y="-13.200000000000001" width="158.046875" height="26.400000000000002" style="cursor: pointer; fill: rgb(0, 0, 0); fill-opacity: 0;"/></g><g class="traces" transform="translate(0, 255.8)" style="opacity: 1;"><text class="legendtext user-select-none" text-anchor="start" x="40" y="7.0200000000000005" style="font-family: Arial; font-size: 18px; fill: rgb(82, 82, 82); fill-opacity: 1; white-space: pre;">Point-Noire</text><g class="layers" style="opacity: 1;"><g class="legendfill"/><g class="legendlines"><path class="js-line" d="M5,0h30" style="fill: none; stroke: rgb(237, 100, 90); stroke-opacity: 1; stroke-width: 3px;"/></g><g class="legendsymbols"><g class="legendpoints"/></g></g><rect class="legendtoggle" pointer-events="all" x="0" y="-13.200000000000001" width="158.046875" height="26.400000000000002" style="cursor: pointer; fill: rgb(0, 0, 0); fill-opacity: 0;"/></g><g class="traces" transform="translate(0, 282.2)" style="opacity: 1;"><text class="legendtext user-select-none" text-anchor="start" x="40" y="7.0200000000000005" style="font-family: Arial; font-size: 18px; fill: rgb(82, 82, 82); fill-opacity: 1; white-space: pre;">Pool</text><g class="layers" style="opacity: 1;"><g class="legendfill"/><g class="legendlines"><path class="js-line" d="M5,0h30" style="fill: none; stroke: rgb(165, 170, 153); stroke-opacity: 1; stroke-width: 3px;"/></g><g class="legendsymbols"><g class="legendpoints"/></g></g><rect class="legendtoggle" pointer-events="all" x="0" y="-13.200000000000001" width="158.046875" height="26.400000000000002" style="cursor: pointer; fill: rgb(0, 0, 0); fill-opacity: 0;"/></g></g></g><rect class="scrollbar" rx="20" ry="3" width="0" height="0" style="fill: rgb(128, 139, 164); fill-opacity: 1;" x="0" y="0"/></g><g class="g-gtitle"/><g class="g-xtitle"><text class="xtitle" x="297.5" y="484" text-anchor="middle" style="font-family: 'Open Sans', verdana, arial, sans-serif; font-size: 20px; fill: rgb(42, 63, 95); opacity: 1; font-weight: normal; white-space: pre;">Date (UTC)</text></g><g class="g-ytitle"><text class="ytitle" transform="rotate(-90,32.25,260)" x="32.25" y="260" text-anchor="middle" style="font-family: 'Open Sans', verdana, arial, sans-serif; font-size: 20px; fill: rgb(42, 63, 95); opacity: 1; font-weight: normal; white-space: pre;">Precipitation (mm)</text></g><g class="annotation" data-index="0" style="opacity: 1;"><g class="annotation-text-g" transform="rotate(0,293,65.49999999999997)"><g class="cursor-pointer" transform="translate(80, 47)"><rect class="bg" x="0.5" y="0.5" width="425" height="36" style="stroke-width: 1px; stroke: rgb(0, 0, 0); stroke-opacity: 0; fill: rgb(0, 0, 0); fill-opacity: 0;"/><text class="annotation-text" text-anchor="middle" x="212.9375" y="29" style="font-family: Arial; font-size: 30px; fill: rgb(37, 37, 37); fill-opacity: 1; white-space: pre;">GSMaP Precipitation by Region</text></g></g></g></g></svg>